<svg width="827" height="545" viewBox="0 0 827 545" fill="none" xmlns="http://www.w3.org/2000/svg">
<path d="M808.07 459.561C808.656 458.975 808.656 458.025 808.07 457.439L798.524 447.893C797.938 447.308 796.989 447.308 796.403 447.893C795.817 448.479 795.817 449.429 796.403 450.015L804.888 458.5L796.403 466.985C795.817 467.571 795.817 468.521 796.403 469.107C796.989 469.692 797.938 469.692 798.524 469.107L808.07 459.561ZM82.9922 458.5V460H807.009V458.5V457H82.9922V458.5Z" fill="#1A1A1A" fill-opacity="0.3"/>
<path d="M84.0607 18.9393C83.475 18.3535 82.5252 18.3535 81.9394 18.9393L72.3933 28.4851C71.8075 29.0708 71.8075 30.0206 72.3933 30.6064C72.979 31.1922 73.9288 31.1922 74.5146 30.6064L83 22.1213L91.4851 30.6067C92.0709 31.1925 93.0207 31.1925 93.6065 30.6068C94.1923 30.021 94.1923 29.0712 93.6065 28.4855L84.0607 18.9393ZM82.9922 458.5L84.4922 458.5L84.5001 20L83.0001 20L81.5001 19.9999L81.4922 458.5L82.9922 458.5Z" fill="#1A1A1A" fill-opacity="0.3"/>
<path d="M742.944 515V492.28H745.696V503.32L744.288 502.232H758.528L757.12 503.32V492.28H759.872V515H757.12V503.832L758.528 504.92H744.288L745.696 503.832V515H742.944ZM764.748 515V498.04H767.436V515H764.748ZM764.684 495.384V492.248H767.5V495.384H764.684ZM778.68 520.184C777.464 520.184 776.365 519.981 775.384 519.576C774.402 519.171 773.581 518.595 772.92 517.848C772.258 517.101 771.81 516.237 771.576 515.256L774.391 515.064C774.648 515.853 775.096 516.472 775.736 516.92C776.397 517.389 777.378 517.624 778.68 517.624C780.216 517.624 781.389 517.315 782.2 516.696C783.032 516.077 783.448 515.149 783.448 513.912V511.16C783.042 512.056 782.392 512.771 781.496 513.304C780.6 513.837 779.597 514.104 778.488 514.104C777.058 514.104 775.778 513.752 774.648 513.048C773.538 512.344 772.664 511.373 772.024 510.136C771.405 508.899 771.096 507.48 771.096 505.88C771.096 504.259 771.405 502.84 772.024 501.624C772.642 500.387 773.496 499.416 774.584 498.712C775.693 498.008 776.952 497.656 778.36 497.656C779.554 497.656 780.621 497.933 781.56 498.488C782.52 499.043 783.192 499.789 783.576 500.728V498.04H786.135V513.848C786.135 515.171 785.837 516.301 785.24 517.24C784.642 518.2 783.789 518.925 782.68 519.416C781.57 519.928 780.237 520.184 778.68 520.184ZM778.616 511.544C780.066 511.544 781.229 511.043 782.104 510.04C782.978 509.016 783.426 507.629 783.448 505.88C783.469 504.707 783.277 503.704 782.872 502.872C782.488 502.019 781.922 501.368 781.176 500.92C780.45 500.451 779.597 500.216 778.616 500.216C777.122 500.216 775.96 500.728 775.128 501.752C774.317 502.755 773.911 504.131 773.911 505.88C773.911 507.629 774.328 509.016 775.16 510.04C776.013 511.043 777.165 511.544 778.616 511.544ZM790.779 515V492.28H793.467V501.784L793.147 501.72C793.36 500.781 793.723 500.013 794.235 499.416C794.747 498.819 795.376 498.381 796.123 498.104C796.869 497.805 797.691 497.656 798.587 497.656C799.803 497.656 800.827 497.933 801.659 498.488C802.512 499.021 803.152 499.779 803.579 500.76C804.027 501.72 804.251 502.829 804.251 504.088V515H801.563V504.856C801.563 503.213 801.264 501.997 800.667 501.208C800.091 500.419 799.205 500.024 798.011 500.024C796.645 500.024 795.547 500.44 794.715 501.272C793.883 502.104 793.467 503.309 793.467 504.888V515H790.779Z" fill="#1A1A1A" fill-opacity="0.6"/>
<path d="M52 84.056H29.28V81.304H40.32L39.232 82.712V68.472L40.32 69.88H29.28V67.128H52V69.88H40.832L41.92 68.472V82.712L40.832 81.304H52V84.056ZM52 62.2525H35.04V59.5645H52V62.2525ZM32.384 62.3165H29.248V59.5005H32.384V62.3165ZM57.184 48.3205C57.184 49.5365 56.9813 50.6352 56.576 51.6165C56.1707 52.5978 55.5947 53.4192 54.848 54.0805C54.1013 54.7418 53.2373 55.1898 52.256 55.4245L52.064 52.6085C52.8533 52.3525 53.472 51.9045 53.92 51.2645C54.3893 50.6032 54.624 49.6218 54.624 48.3205C54.624 46.7845 54.3147 45.6112 53.696 44.8005C53.0773 43.9685 52.1493 43.5525 50.912 43.5525H48.16C49.056 43.9578 49.7707 44.6085 50.304 45.5045C50.8373 46.4005 51.104 47.4032 51.104 48.5125C51.104 49.9418 50.752 51.2218 50.048 52.3525C49.344 53.4618 48.3733 54.3365 47.136 54.9765C45.8987 55.5952 44.48 55.9045 42.88 55.9045C41.2587 55.9045 39.84 55.5952 38.624 54.9765C37.3867 54.3578 36.416 53.5045 35.712 52.4165C35.008 51.3072 34.656 50.0485 34.656 48.6405C34.656 47.4458 34.9333 46.3792 35.488 45.4405C36.0427 44.4805 36.7893 43.8085 37.728 43.4245H35.04V40.8645H50.848C52.1707 40.8645 53.3013 41.1632 54.24 41.7605C55.2 42.3578 55.9253 43.2112 56.416 44.3205C56.928 45.4298 57.184 46.7632 57.184 48.3205ZM48.544 48.3845C48.544 46.9338 48.0427 45.7712 47.04 44.8965C46.016 44.0218 44.6293 43.5738 42.88 43.5525C41.7067 43.5312 40.704 43.7232 39.872 44.1285C39.0187 44.5125 38.368 45.0778 37.92 45.8245C37.4507 46.5498 37.216 47.4032 37.216 48.3845C37.216 49.8778 37.728 51.0405 38.752 51.8725C39.7547 52.6832 41.1307 53.0885 42.88 53.0885C44.6293 53.0885 46.016 52.6725 47.04 51.8405C48.0427 50.9872 48.544 49.8352 48.544 48.3845ZM52 36.2212H29.28V33.5332H38.784L38.72 33.8532C37.7813 33.6399 37.0133 33.2772 36.416 32.7652C35.8187 32.2532 35.3813 31.6239 35.104 30.8772C34.8053 30.1306 34.656 29.3092 34.656 28.4132C34.656 27.1972 34.9333 26.1732 35.488 25.3412C36.0213 24.4879 36.7787 23.8479 37.76 23.4212C38.72 22.9732 39.8293 22.7492 41.088 22.7492H52V25.4372H41.856C40.2133 25.4372 38.9973 25.7359 38.208 26.3332C37.4187 26.9092 37.024 27.7946 37.024 28.9892C37.024 30.3546 37.44 31.4532 38.272 32.2852C39.104 33.1172 40.3093 33.5332 41.888 33.5332H52V36.2212Z" fill="#1A1A1A" fill-opacity="0.6"/>
<path d="M97.944 515V492.28H100.696V513.72L99.32 512.312H112.056V515H97.944ZM121.497 515.384C119.939 515.384 118.574 515.021 117.401 514.296C116.227 513.571 115.321 512.547 114.681 511.224C114.041 509.88 113.721 508.312 113.721 506.52C113.721 504.707 114.041 503.139 114.681 501.816C115.321 500.493 116.227 499.469 117.401 498.744C118.574 498.019 119.939 497.656 121.497 497.656C123.054 497.656 124.409 498.019 125.561 498.744C126.734 499.469 127.641 500.493 128.281 501.816C128.921 503.139 129.241 504.707 129.241 506.52C129.241 508.312 128.921 509.88 128.281 511.224C127.641 512.547 126.734 513.571 125.561 514.296C124.409 515.021 123.054 515.384 121.497 515.384ZM121.497 512.824C123.054 512.824 124.259 512.269 125.113 511.16C125.987 510.029 126.425 508.483 126.425 506.52C126.425 504.557 125.987 503.021 125.113 501.912C124.259 500.781 123.054 500.216 121.497 500.216C119.939 500.216 118.723 500.781 117.849 501.912C116.974 503.021 116.536 504.557 116.536 506.52C116.536 508.483 116.974 510.029 117.849 511.16C118.723 512.269 119.939 512.824 121.497 512.824ZM135.796 515L130.548 498.04H133.492L137.46 512.184L141.492 498.04H144.372L148.404 512.184L152.404 498.04H155.348L150.1 515H146.708L142.932 502.104L139.156 515H135.796Z" fill="#1A1A1A" fill-opacity="0.6"/>
<path d="M402.944 515V492.28H405.696V515H402.944ZM411.498 515V498.04H413.962L414.058 502.328L413.674 502.2C413.866 501.261 414.196 500.461 414.666 499.8C415.156 499.117 415.754 498.595 416.458 498.232C417.162 497.848 417.94 497.656 418.794 497.656C420.266 497.656 421.46 498.061 422.378 498.872C423.316 499.683 423.903 500.813 424.138 502.264L423.626 502.232C423.796 501.251 424.106 500.429 424.554 499.768C425.023 499.085 425.62 498.563 426.346 498.2C427.071 497.837 427.903 497.656 428.842 497.656C430.058 497.656 431.082 497.912 431.914 498.424C432.746 498.915 433.375 499.64 433.802 500.6C434.228 501.56 434.442 502.723 434.442 504.088V515H431.754V504.664C431.754 503.128 431.455 501.976 430.858 501.208C430.26 500.419 429.375 500.024 428.202 500.024C427.412 500.024 426.719 500.216 426.122 500.6C425.546 500.984 425.098 501.539 424.778 502.264C424.458 502.968 424.298 503.832 424.298 504.856V515H421.61V504.856C421.61 503.341 421.343 502.157 420.81 501.304C420.276 500.451 419.38 500.024 418.122 500.024C417.332 500.024 416.639 500.216 416.042 500.6C415.466 500.984 415.007 501.539 414.666 502.264C414.346 502.989 414.186 503.853 414.186 504.856V515H411.498ZM438.935 519.8V498.04H441.431L441.495 501.688L441.111 501.496C441.538 500.237 442.242 499.288 443.223 498.648C444.226 497.987 445.378 497.656 446.679 497.656C448.364 497.656 449.74 498.072 450.807 498.904C451.895 499.736 452.695 500.824 453.207 502.168C453.74 503.512 454.007 504.963 454.007 506.52C454.007 508.077 453.74 509.528 453.207 510.872C452.695 512.216 451.895 513.304 450.807 514.136C449.74 514.968 448.364 515.384 446.679 515.384C445.804 515.384 444.983 515.235 444.215 514.936C443.468 514.637 442.828 514.221 442.295 513.688C441.783 513.155 441.431 512.525 441.239 511.8L441.623 511.352V519.8H438.935ZM446.423 512.824C447.895 512.824 449.058 512.269 449.911 511.16C450.764 510.051 451.191 508.504 451.191 506.52C451.191 504.536 450.764 502.989 449.911 501.88C449.058 500.771 447.895 500.216 446.423 500.216C445.442 500.216 444.588 500.451 443.863 500.92C443.159 501.389 442.604 502.093 442.199 503.032C441.815 503.971 441.623 505.133 441.623 506.52C441.623 507.907 441.815 509.069 442.199 510.008C442.583 510.947 443.138 511.651 443.863 512.12C444.588 512.589 445.442 512.824 446.423 512.824ZM462.667 515.384C460.918 515.384 459.521 514.979 458.475 514.168C457.451 513.357 456.939 512.227 456.939 510.776C456.939 509.325 457.366 508.184 458.219 507.352C459.073 506.52 460.427 505.933 462.283 505.592L468.299 504.472C468.299 503.043 467.958 501.976 467.275 501.272C466.614 500.568 465.611 500.216 464.267 500.216C463.094 500.216 462.166 500.483 461.483 501.016C460.801 501.528 460.331 502.275 460.075 503.256L457.227 503.032C457.547 501.432 458.315 500.141 459.531 499.16C460.769 498.157 462.347 497.656 464.267 497.656C466.443 497.656 468.107 498.275 469.259 499.512C470.411 500.728 470.987 502.413 470.987 504.568V511.576C470.987 511.96 471.051 512.237 471.179 512.408C471.329 512.557 471.563 512.632 471.883 512.632H472.555V515C472.47 515.021 472.331 515.032 472.139 515.032C471.947 515.053 471.745 515.064 471.531 515.064C470.763 515.064 470.134 514.947 469.643 514.712C469.174 514.456 468.833 514.072 468.619 513.56C468.406 513.027 468.299 512.333 468.299 511.48L468.619 511.544C468.47 512.269 468.107 512.931 467.531 513.528C466.955 514.104 466.241 514.563 465.387 514.904C464.534 515.224 463.627 515.384 462.667 515.384ZM462.923 513.016C464.054 513.016 465.014 512.803 465.803 512.376C466.614 511.928 467.233 511.331 467.659 510.584C468.086 509.816 468.299 508.963 468.299 508.024V506.808L462.795 507.832C461.643 508.045 460.843 508.376 460.395 508.824C459.969 509.251 459.755 509.816 459.755 510.52C459.755 511.309 460.033 511.928 460.587 512.376C461.163 512.803 461.942 513.016 462.923 513.016ZM482.153 515.384C480.574 515.384 479.198 515.021 478.025 514.296C476.873 513.571 475.977 512.547 475.337 511.224C474.697 509.88 474.377 508.312 474.377 506.52C474.377 504.728 474.697 503.171 475.337 501.848C475.977 500.525 476.873 499.501 478.025 498.776C479.198 498.029 480.574 497.656 482.153 497.656C483.454 497.656 484.606 497.891 485.609 498.36C486.633 498.808 487.465 499.469 488.105 500.344C488.745 501.219 489.161 502.285 489.353 503.544L486.537 503.736C486.345 502.605 485.854 501.741 485.065 501.144C484.275 500.525 483.305 500.216 482.153 500.216C480.595 500.216 479.379 500.781 478.505 501.912C477.63 503.021 477.193 504.557 477.193 506.52C477.193 508.483 477.63 510.029 478.505 511.16C479.379 512.269 480.595 512.824 482.153 512.824C483.305 512.824 484.275 512.504 485.065 511.864C485.854 511.224 486.345 510.264 486.537 508.984L489.353 509.176C489.161 510.435 488.745 511.533 488.105 512.472C487.465 513.389 486.633 514.104 485.609 514.616C484.606 515.128 483.454 515.384 482.153 515.384ZM498.237 515C496.701 515 495.559 514.648 494.813 513.944C494.087 513.24 493.725 512.141 493.725 510.648V494.072H496.413V510.584C496.413 511.352 496.583 511.885 496.925 512.184C497.266 512.483 497.789 512.632 498.493 512.632H500.925V515H498.237ZM491.229 500.408V498.04H500.925V500.408H491.229Z" fill="#1A1A1A" fill-opacity="0.9"/>
<path d="M52 276.056H29.28V261.784H31.968V273.304H39.296V262.168H41.92V273.304H49.312V261.528H52V276.056ZM52 256.464H33.504C32.2453 256.464 31.232 256.101 30.464 255.375C29.6747 254.65 29.28 253.519 29.28 251.983V249.295H31.648V251.791C31.648 252.453 31.8293 252.954 32.192 253.295C32.5547 253.615 33.056 253.775 33.696 253.775H52V256.464ZM37.408 258.767H35.04V249.519H37.408V258.767ZM52 247.247H33.504C32.2453 247.247 31.232 246.885 30.464 246.159C29.6747 245.434 29.28 244.303 29.28 242.767V240.079H31.648V242.575C31.648 243.237 31.8293 243.738 32.192 244.079C32.5547 244.399 33.056 244.559 33.696 244.559H52V247.247ZM37.408 249.551H35.04V240.303H37.408V249.551ZM52.384 231.066C52.384 232.623 52.0213 233.989 51.296 235.162C50.5707 236.335 49.5467 237.242 48.224 237.882C46.88 238.522 45.312 238.842 43.52 238.842C41.7067 238.842 40.1387 238.522 38.816 237.882C37.4933 237.242 36.4693 236.335 35.744 235.162C35.0187 233.989 34.656 232.623 34.656 231.066C34.656 229.509 35.0187 228.154 35.744 227.002C36.4693 225.829 37.4933 224.922 38.816 224.282C40.1387 223.642 41.7067 223.322 43.52 223.322C45.312 223.322 46.88 223.642 48.224 224.282C49.5467 224.922 50.5707 225.829 51.296 227.002C52.0213 228.154 52.384 229.509 52.384 231.066ZM49.824 231.066C49.824 229.509 49.2693 228.303 48.16 227.45C47.0293 226.575 45.4827 226.138 43.52 226.138C41.5573 226.138 40.0213 226.575 38.912 227.45C37.7813 228.303 37.216 229.509 37.216 231.066C37.216 232.623 37.7813 233.839 38.912 234.714C40.0213 235.589 41.5573 236.026 43.52 236.026C45.4827 236.026 47.0293 235.589 48.16 234.714C49.2693 233.839 49.824 232.623 49.824 231.066ZM52 219.659H35.04V217.291L39.328 217.163L39.232 217.419C37.7813 217.205 36.7253 216.747 36.064 216.043C35.3813 215.317 35.04 214.357 35.04 213.163V211.499H37.6V213.131C37.6 213.984 37.76 214.699 38.08 215.275C38.3787 215.829 38.8373 216.256 39.456 216.555C40.0533 216.832 40.8213 216.971 41.76 216.971H52V219.659ZM52 202.919C52 204.455 51.648 205.597 50.944 206.343C50.24 207.069 49.1413 207.431 47.648 207.431H31.072L31.072 204.743H47.584C48.352 204.743 48.8853 204.573 49.184 204.231C49.4827 203.89 49.632 203.367 49.632 202.663V200.231H52V202.919ZM37.408 209.927H35.04L35.04 200.231H37.408V209.927Z" fill="#1A1A1A" fill-opacity="0.9"/>
<path d="M52 435.056H29.28V432.304H50.72L49.312 433.68V420.944H52V435.056ZM52.384 411.503C52.384 413.061 52.0213 414.426 51.296 415.599C50.5707 416.773 49.5467 417.679 48.224 418.319C46.88 418.959 45.312 419.279 43.52 419.279C41.7067 419.279 40.1387 418.959 38.816 418.319C37.4933 417.679 36.4693 416.773 35.744 415.599C35.0187 414.426 34.656 413.061 34.656 411.503C34.656 409.946 35.0187 408.591 35.744 407.439C36.4693 406.266 37.4933 405.359 38.816 404.719C40.1387 404.079 41.7067 403.759 43.52 403.759C45.312 403.759 46.88 404.079 48.224 404.719C49.5467 405.359 50.5707 406.266 51.296 407.439C52.0213 408.591 52.384 409.946 52.384 411.503ZM49.824 411.503C49.824 409.946 49.2693 408.741 48.16 407.887C47.0293 407.013 45.4827 406.575 43.52 406.575C41.5573 406.575 40.0213 407.013 38.912 407.887C37.7813 408.741 37.216 409.946 37.216 411.503C37.216 413.061 37.7813 414.277 38.912 415.151C40.0213 416.026 41.5573 416.464 43.52 416.464C45.4827 416.464 47.0293 416.026 48.16 415.151C49.2693 414.277 49.824 413.061 49.824 411.503ZM52 397.204L35.04 402.452V399.508L49.184 395.54L35.04 391.508V388.628L49.184 384.596L35.04 380.596L35.04 377.652L52 382.9V386.292L39.104 390.068L52 393.844V397.204Z" fill="#1A1A1A" fill-opacity="0.6"/>
<path d="M276.392 225V206.54H278.628V223.96L277.51 222.816H287.858V225H276.392ZM295.528 225.312C294.228 225.312 293.102 225.017 292.148 224.428C291.212 223.839 290.484 223.007 289.964 221.932C289.462 220.84 289.21 219.566 289.21 218.11C289.21 216.654 289.462 215.389 289.964 214.314C290.484 213.239 291.204 212.407 292.122 211.818C293.058 211.211 294.159 210.908 295.424 210.908C296.62 210.908 297.678 211.194 298.596 211.766C299.515 212.321 300.226 213.135 300.728 214.21C301.248 215.285 301.508 216.593 301.508 218.136V218.786H291.498C291.585 220.259 291.975 221.369 292.668 222.114C293.379 222.859 294.332 223.232 295.528 223.232C296.43 223.232 297.166 223.024 297.738 222.608C298.328 222.175 298.735 221.611 298.96 220.918L301.3 221.1C300.936 222.331 300.243 223.345 299.22 224.142C298.215 224.922 296.984 225.312 295.528 225.312ZM291.498 216.862H299.116C299.012 215.527 298.622 214.548 297.946 213.924C297.288 213.3 296.447 212.988 295.424 212.988C294.367 212.988 293.492 213.317 292.798 213.976C292.122 214.617 291.689 215.579 291.498 216.862ZM308.54 225.312C307.119 225.312 305.984 224.983 305.134 224.324C304.302 223.665 303.886 222.747 303.886 221.568C303.886 220.389 304.233 219.462 304.926 218.786C305.62 218.11 306.72 217.633 308.228 217.356L313.116 216.446C313.116 215.285 312.839 214.418 312.284 213.846C311.747 213.274 310.932 212.988 309.84 212.988C308.887 212.988 308.133 213.205 307.578 213.638C307.024 214.054 306.642 214.661 306.434 215.458L304.12 215.276C304.38 213.976 305.004 212.927 305.992 212.13C306.998 211.315 308.28 210.908 309.84 210.908C311.608 210.908 312.96 211.411 313.896 212.416C314.832 213.404 315.3 214.773 315.3 216.524V222.218C315.3 222.53 315.352 222.755 315.456 222.894C315.578 223.015 315.768 223.076 316.028 223.076H316.574V225C316.505 225.017 316.392 225.026 316.236 225.026C316.08 225.043 315.916 225.052 315.742 225.052C315.118 225.052 314.607 224.957 314.208 224.766C313.827 224.558 313.55 224.246 313.376 223.83C313.203 223.397 313.116 222.833 313.116 222.14L313.376 222.192C313.255 222.781 312.96 223.319 312.492 223.804C312.024 224.272 311.444 224.645 310.75 224.922C310.057 225.182 309.32 225.312 308.54 225.312ZM308.748 223.388C309.667 223.388 310.447 223.215 311.088 222.868C311.747 222.504 312.25 222.019 312.596 221.412C312.943 220.788 313.116 220.095 313.116 219.332V218.344L308.644 219.176C307.708 219.349 307.058 219.618 306.694 219.982C306.348 220.329 306.174 220.788 306.174 221.36C306.174 222.001 306.4 222.504 306.85 222.868C307.318 223.215 307.951 223.388 308.748 223.388ZM319.041 225V211.22H320.965L321.069 214.704L320.861 214.626C321.034 213.447 321.407 212.589 321.979 212.052C322.568 211.497 323.348 211.22 324.319 211.22H325.671V213.3H324.345C323.652 213.3 323.071 213.43 322.603 213.69C322.152 213.933 321.806 214.305 321.563 214.808C321.338 215.293 321.225 215.917 321.225 216.68V225H319.041ZM327.851 225V211.22H329.853L329.931 214.73L329.671 214.496C329.845 213.681 330.148 213.014 330.581 212.494C331.015 211.957 331.535 211.558 332.141 211.298C332.765 211.038 333.433 210.908 334.143 210.908C335.201 210.908 336.067 211.142 336.743 211.61C337.437 212.078 337.948 212.711 338.277 213.508C338.624 214.288 338.797 215.163 338.797 216.134V225H336.613V216.758C336.613 215.909 336.509 215.198 336.301 214.626C336.111 214.037 335.799 213.595 335.365 213.3C334.932 212.988 334.369 212.832 333.675 212.832C332.618 212.832 331.743 213.17 331.049 213.846C330.373 214.505 330.035 215.475 330.035 216.758V225H327.851Z" fill="#BB7E1C"/>
<path d="M125.392 397V378.54H128.512L134.414 394.556L140.29 378.54H143.41V397H141.174V382.7L135.896 397H132.906L127.628 382.7V397H125.392ZM153.009 397.312C151.744 397.312 150.634 397.017 149.681 396.428C148.728 395.839 147.991 395.007 147.471 393.932C146.951 392.84 146.691 391.566 146.691 390.11C146.691 388.637 146.951 387.363 147.471 386.288C147.991 385.213 148.728 384.381 149.681 383.792C150.634 383.203 151.744 382.908 153.009 382.908C154.274 382.908 155.375 383.203 156.311 383.792C157.264 384.381 158.001 385.213 158.521 386.288C159.041 387.363 159.301 388.637 159.301 390.11C159.301 391.566 159.041 392.84 158.521 393.932C158.001 395.007 157.264 395.839 156.311 396.428C155.375 397.017 154.274 397.312 153.009 397.312ZM153.009 395.232C154.274 395.232 155.254 394.781 155.947 393.88C156.658 392.961 157.013 391.705 157.013 390.11C157.013 388.515 156.658 387.267 155.947 386.366C155.254 385.447 154.274 384.988 153.009 384.988C151.744 384.988 150.756 385.447 150.045 386.366C149.334 387.267 148.979 388.515 148.979 390.11C148.979 391.705 149.334 392.961 150.045 393.88C150.756 394.781 151.744 395.232 153.009 395.232ZM162.277 397V383.22H164.201L164.305 386.704L164.097 386.626C164.271 385.447 164.643 384.589 165.215 384.052C165.805 383.497 166.585 383.22 167.555 383.22H168.907V385.3H167.581C166.888 385.3 166.307 385.43 165.839 385.69C165.389 385.933 165.042 386.305 164.799 386.808C164.574 387.293 164.461 387.917 164.461 388.68V397H162.277ZM176.47 397.312C175.17 397.312 174.043 397.017 173.09 396.428C172.154 395.839 171.426 395.007 170.906 393.932C170.403 392.84 170.152 391.566 170.152 390.11C170.152 388.654 170.403 387.389 170.906 386.314C171.426 385.239 172.145 384.407 173.064 383.818C174 383.211 175.1 382.908 176.366 382.908C177.562 382.908 178.619 383.194 179.538 383.766C180.456 384.321 181.167 385.135 181.67 386.21C182.19 387.285 182.45 388.593 182.45 390.136V390.786H172.44C172.526 392.259 172.916 393.369 173.61 394.114C174.32 394.859 175.274 395.232 176.47 395.232C177.371 395.232 178.108 395.024 178.68 394.608C179.269 394.175 179.676 393.611 179.902 392.918L182.242 393.1C181.878 394.331 181.184 395.345 180.162 396.142C179.156 396.922 177.926 397.312 176.47 397.312ZM172.44 388.862H180.058C179.954 387.527 179.564 386.548 178.888 385.924C178.229 385.3 177.388 384.988 176.366 384.988C175.308 384.988 174.433 385.317 173.74 385.976C173.064 386.617 172.63 387.579 172.44 388.862ZM192.162 397V383.22H194.164L194.242 386.704L193.93 386.6C194.086 385.837 194.355 385.187 194.736 384.65C195.135 384.095 195.62 383.671 196.192 383.376C196.764 383.064 197.397 382.908 198.09 382.908C199.286 382.908 200.257 383.237 201.002 383.896C201.765 384.555 202.241 385.473 202.432 386.652L202.016 386.626C202.155 385.829 202.406 385.161 202.77 384.624C203.151 384.069 203.637 383.645 204.226 383.35C204.815 383.055 205.491 382.908 206.254 382.908C207.242 382.908 208.074 383.116 208.75 383.532C209.426 383.931 209.937 384.52 210.284 385.3C210.631 386.08 210.804 387.025 210.804 388.134V397H208.62V388.602C208.62 387.354 208.377 386.418 207.892 385.794C207.407 385.153 206.687 384.832 205.734 384.832C205.093 384.832 204.529 384.988 204.044 385.3C203.576 385.612 203.212 386.063 202.952 386.652C202.692 387.224 202.562 387.926 202.562 388.758V397H200.378V388.758C200.378 387.527 200.161 386.565 199.728 385.872C199.295 385.179 198.567 384.832 197.544 384.832C196.903 384.832 196.339 384.988 195.854 385.3C195.386 385.612 195.013 386.063 194.736 386.652C194.476 387.241 194.346 387.943 194.346 388.758V397H192.162ZM218.427 397.312C217.006 397.312 215.87 396.983 215.021 396.324C214.189 395.665 213.773 394.747 213.773 393.568C213.773 392.389 214.12 391.462 214.813 390.786C215.506 390.11 216.607 389.633 218.115 389.356L223.003 388.446C223.003 387.285 222.726 386.418 222.171 385.846C221.634 385.274 220.819 384.988 219.727 384.988C218.774 384.988 218.02 385.205 217.465 385.638C216.91 386.054 216.529 386.661 216.321 387.458L214.007 387.276C214.267 385.976 214.891 384.927 215.879 384.13C216.884 383.315 218.167 382.908 219.727 382.908C221.495 382.908 222.847 383.411 223.783 384.416C224.719 385.404 225.187 386.773 225.187 388.524V394.218C225.187 394.53 225.239 394.755 225.343 394.894C225.464 395.015 225.655 395.076 225.915 395.076H226.461V397C226.392 397.017 226.279 397.026 226.123 397.026C225.967 397.043 225.802 397.052 225.629 397.052C225.005 397.052 224.494 396.957 224.095 396.766C223.714 396.558 223.436 396.246 223.263 395.83C223.09 395.397 223.003 394.833 223.003 394.14L223.263 394.192C223.142 394.781 222.847 395.319 222.379 395.804C221.911 396.272 221.33 396.645 220.637 396.922C219.944 397.182 219.207 397.312 218.427 397.312ZM218.635 395.388C219.554 395.388 220.334 395.215 220.975 394.868C221.634 394.504 222.136 394.019 222.483 393.412C222.83 392.788 223.003 392.095 223.003 391.332V390.344L218.531 391.176C217.595 391.349 216.945 391.618 216.581 391.982C216.234 392.329 216.061 392.788 216.061 393.36C216.061 394.001 216.286 394.504 216.737 394.868C217.205 395.215 217.838 395.388 218.635 395.388ZM228.928 397V383.22H230.852L230.956 386.704L230.748 386.626C230.921 385.447 231.294 384.589 231.866 384.052C232.455 383.497 233.235 383.22 234.206 383.22H235.558V385.3H234.232C233.538 385.3 232.958 385.43 232.49 385.69C232.039 385.933 231.692 386.305 231.45 386.808C231.224 387.293 231.112 387.917 231.112 388.68V397H228.928ZM237.992 397V378.54H240.176V390.63L246.884 383.22H249.796L244.362 389.07L250.03 397H247.378L242.88 390.552L240.176 393.412V397H237.992ZM257.415 397.312C256.115 397.312 254.988 397.017 254.035 396.428C253.099 395.839 252.371 395.007 251.851 393.932C251.348 392.84 251.097 391.566 251.097 390.11C251.097 388.654 251.348 387.389 251.851 386.314C252.371 385.239 253.09 384.407 254.009 383.818C254.945 383.211 256.046 382.908 257.311 382.908C258.507 382.908 259.564 383.194 260.483 383.766C261.402 384.321 262.112 385.135 262.615 386.21C263.135 387.285 263.395 388.593 263.395 390.136V390.786H253.385C253.472 392.259 253.862 393.369 254.555 394.114C255.266 394.859 256.219 395.232 257.415 395.232C258.316 395.232 259.053 395.024 259.625 394.608C260.214 394.175 260.622 393.611 260.847 392.918L263.187 393.1C262.823 394.331 262.13 395.345 261.107 396.142C260.102 396.922 258.871 397.312 257.415 397.312ZM253.385 388.862H261.003C260.899 387.527 260.509 386.548 259.833 385.924C259.174 385.3 258.334 384.988 257.311 384.988C256.254 384.988 255.378 385.317 254.685 385.976C254.009 386.617 253.576 387.579 253.385 388.862ZM270.864 397C269.616 397 268.689 396.714 268.082 396.142C267.493 395.57 267.198 394.677 267.198 393.464V379.996H269.382V393.412C269.382 394.036 269.521 394.469 269.798 394.712C270.076 394.955 270.5 395.076 271.072 395.076H273.048V397H270.864ZM265.17 385.144V383.22H273.048V385.144H265.17ZM275.85 397V383.22H278.034V397H275.85ZM275.798 381.062V378.514H278.086V381.062H275.798ZM282.451 397V383.22H284.453L284.531 386.73L284.271 386.496C284.444 385.681 284.748 385.014 285.181 384.494C285.614 383.957 286.134 383.558 286.741 383.298C287.365 383.038 288.032 382.908 288.743 382.908C289.8 382.908 290.667 383.142 291.343 383.61C292.036 384.078 292.548 384.711 292.877 385.508C293.224 386.288 293.397 387.163 293.397 388.134V397H291.213V388.758C291.213 387.909 291.109 387.198 290.901 386.626C290.71 386.037 290.398 385.595 289.965 385.3C289.532 384.988 288.968 384.832 288.275 384.832C287.218 384.832 286.342 385.17 285.649 385.846C284.973 386.505 284.635 387.475 284.635 388.758V397H282.451ZM302.48 401.212C301.492 401.212 300.599 401.047 299.802 400.718C299.004 400.389 298.337 399.921 297.8 399.314C297.262 398.707 296.898 398.005 296.708 397.208L298.996 397.052C299.204 397.693 299.568 398.196 300.088 398.56C300.625 398.941 301.422 399.132 302.48 399.132C303.728 399.132 304.681 398.881 305.34 398.378C306.016 397.875 306.354 397.121 306.354 396.116V393.88C306.024 394.608 305.496 395.189 304.768 395.622C304.04 396.055 303.225 396.272 302.324 396.272C301.162 396.272 300.122 395.986 299.204 395.414C298.302 394.842 297.592 394.053 297.072 393.048C296.569 392.043 296.318 390.89 296.318 389.59C296.318 388.273 296.569 387.12 297.072 386.132C297.574 385.127 298.268 384.338 299.152 383.766C300.053 383.194 301.076 382.908 302.22 382.908C303.19 382.908 304.057 383.133 304.82 383.584C305.6 384.035 306.146 384.641 306.458 385.404V383.22H308.538V396.064C308.538 397.139 308.295 398.057 307.81 398.82C307.324 399.6 306.631 400.189 305.73 400.588C304.828 401.004 303.745 401.212 302.48 401.212ZM302.428 394.192C303.606 394.192 304.551 393.785 305.262 392.97C305.972 392.138 306.336 391.011 306.354 389.59C306.371 388.637 306.215 387.822 305.886 387.146C305.574 386.453 305.114 385.924 304.508 385.56C303.918 385.179 303.225 384.988 302.428 384.988C301.214 384.988 300.27 385.404 299.594 386.236C298.935 387.051 298.606 388.169 298.606 389.59C298.606 391.011 298.944 392.138 299.62 392.97C300.313 393.785 301.249 394.192 302.428 394.192ZM324.573 397.312C323.291 397.312 322.173 397.017 321.219 396.428C320.283 395.839 319.555 395.007 319.035 393.932C318.515 392.84 318.255 391.566 318.255 390.11C318.255 388.654 318.515 387.389 319.035 386.314C319.555 385.239 320.283 384.407 321.219 383.818C322.173 383.211 323.291 382.908 324.573 382.908C325.631 382.908 326.567 383.099 327.381 383.48C328.213 383.844 328.889 384.381 329.409 385.092C329.929 385.803 330.267 386.669 330.423 387.692L328.135 387.848C327.979 386.929 327.581 386.227 326.939 385.742C326.298 385.239 325.509 384.988 324.573 384.988C323.308 384.988 322.32 385.447 321.609 386.366C320.899 387.267 320.543 388.515 320.543 390.11C320.543 391.705 320.899 392.961 321.609 393.88C322.32 394.781 323.308 395.232 324.573 395.232C325.509 395.232 326.298 394.972 326.939 394.452C327.581 393.932 327.979 393.152 328.135 392.112L330.423 392.268C330.267 393.291 329.929 394.183 329.409 394.946C328.889 395.691 328.213 396.272 327.381 396.688C326.567 397.104 325.631 397.312 324.573 397.312ZM338.513 397.312C337.247 397.312 336.138 397.017 335.185 396.428C334.231 395.839 333.495 395.007 332.975 393.932C332.455 392.84 332.195 391.566 332.195 390.11C332.195 388.637 332.455 387.363 332.975 386.288C333.495 385.213 334.231 384.381 335.185 383.792C336.138 383.203 337.247 382.908 338.513 382.908C339.778 382.908 340.879 383.203 341.815 383.792C342.768 384.381 343.505 385.213 344.025 386.288C344.545 387.363 344.805 388.637 344.805 390.11C344.805 391.566 344.545 392.84 344.025 393.932C343.505 395.007 342.768 395.839 341.815 396.428C340.879 397.017 339.778 397.312 338.513 397.312ZM338.513 395.232C339.778 395.232 340.757 394.781 341.451 393.88C342.161 392.961 342.517 391.705 342.517 390.11C342.517 388.515 342.161 387.267 341.451 386.366C340.757 385.447 339.778 384.988 338.513 384.988C337.247 384.988 336.259 385.447 335.549 386.366C334.838 387.267 334.483 388.515 334.483 390.11C334.483 391.705 334.838 392.961 335.549 393.88C336.259 394.781 337.247 395.232 338.513 395.232ZM347.781 397V383.22H349.783L349.861 386.73L349.601 386.496C349.775 385.681 350.078 385.014 350.511 384.494C350.945 383.957 351.465 383.558 352.071 383.298C352.695 383.038 353.363 382.908 354.073 382.908C355.131 382.908 355.997 383.142 356.673 383.61C357.367 384.078 357.878 384.711 358.207 385.508C358.554 386.288 358.727 387.163 358.727 388.134V397H356.543V388.758C356.543 387.909 356.439 387.198 356.231 386.626C356.041 386.037 355.729 385.595 355.295 385.3C354.862 384.988 354.299 384.832 353.605 384.832C352.548 384.832 351.673 385.17 350.979 385.846C350.303 386.505 349.965 387.475 349.965 388.758V397H347.781ZM366.892 397C365.644 397 364.716 396.714 364.11 396.142C363.52 395.57 363.226 394.677 363.226 393.464V379.996H365.41V393.412C365.41 394.036 365.548 394.469 365.826 394.712C366.103 394.955 366.528 395.076 367.1 395.076H369.076V397H366.892ZM361.198 385.144V383.22H369.076V385.144H361.198ZM377.005 397.312C375.705 397.312 374.578 397.017 373.625 396.428C372.689 395.839 371.961 395.007 371.441 393.932C370.938 392.84 370.687 391.566 370.687 390.11C370.687 388.654 370.938 387.389 371.441 386.314C371.961 385.239 372.68 384.407 373.599 383.818C374.535 383.211 375.636 382.908 376.901 382.908C378.097 382.908 379.154 383.194 380.073 383.766C380.992 384.321 381.702 385.135 382.205 386.21C382.725 387.285 382.985 388.593 382.985 390.136V390.786H372.975C373.062 392.259 373.452 393.369 374.145 394.114C374.856 394.859 375.809 395.232 377.005 395.232C377.906 395.232 378.643 395.024 379.215 394.608C379.804 394.175 380.212 393.611 380.437 392.918L382.777 393.1C382.413 394.331 381.72 395.345 380.697 396.142C379.692 396.922 378.461 397.312 377.005 397.312ZM372.975 388.862H380.593C380.489 387.527 380.099 386.548 379.423 385.924C378.764 385.3 377.924 384.988 376.901 384.988C375.844 384.988 374.968 385.317 374.275 385.976C373.599 386.617 373.166 387.579 372.975 388.862ZM385.943 397V383.22H387.945L388.023 386.73L387.763 386.496C387.937 385.681 388.24 385.014 388.673 384.494C389.107 383.957 389.627 383.558 390.233 383.298C390.857 383.038 391.525 382.908 392.235 382.908C393.293 382.908 394.159 383.142 394.835 383.61C395.529 384.078 396.04 384.711 396.369 385.508C396.716 386.288 396.889 387.163 396.889 388.134V397H394.705V388.758C394.705 387.909 394.601 387.198 394.393 386.626C394.203 386.037 393.891 385.595 393.457 385.3C393.024 384.988 392.461 384.832 391.767 384.832C390.71 384.832 389.835 385.17 389.141 385.846C388.465 386.505 388.127 387.475 388.127 388.758V397H385.943ZM405.054 397C403.806 397 402.878 396.714 402.272 396.142C401.682 395.57 401.388 394.677 401.388 393.464V379.996H403.572V393.412C403.572 394.036 403.71 394.469 403.988 394.712C404.265 394.955 404.69 395.076 405.262 395.076H407.238V397H405.054ZM399.36 385.144V383.22H407.238V385.144H399.36ZM414.803 397.312C413.572 397.312 412.524 397.113 411.657 396.714C410.808 396.315 410.14 395.769 409.655 395.076C409.187 394.365 408.918 393.559 408.849 392.658L411.137 392.502C411.276 393.334 411.631 394.001 412.203 394.504C412.775 394.989 413.642 395.232 414.803 395.232C415.739 395.232 416.484 395.085 417.039 394.79C417.611 394.478 417.897 393.984 417.897 393.308C417.897 392.944 417.81 392.641 417.637 392.398C417.464 392.155 417.126 391.947 416.623 391.774C416.12 391.583 415.375 391.401 414.387 391.228C413.07 390.985 412.03 390.691 411.267 390.344C410.522 389.98 409.984 389.538 409.655 389.018C409.343 388.481 409.187 387.848 409.187 387.12C409.187 385.889 409.638 384.884 410.539 384.104C411.44 383.307 412.723 382.908 414.387 382.908C415.514 382.908 416.458 383.116 417.221 383.532C418.001 383.931 418.608 384.468 419.041 385.144C419.492 385.803 419.786 386.531 419.925 387.328L417.637 387.484C417.533 386.999 417.342 386.574 417.065 386.21C416.788 385.829 416.424 385.534 415.973 385.326C415.522 385.101 414.985 384.988 414.361 384.988C413.373 384.988 412.645 385.179 412.177 385.56C411.709 385.941 411.475 386.427 411.475 387.016C411.475 387.467 411.579 387.839 411.787 388.134C412.012 388.411 412.368 388.645 412.853 388.836C413.338 389.009 413.988 389.165 414.803 389.304C416.207 389.547 417.299 389.841 418.079 390.188C418.859 390.535 419.405 390.959 419.717 391.462C420.029 391.965 420.185 392.58 420.185 393.308C420.185 394.157 419.942 394.885 419.457 395.492C418.989 396.081 418.348 396.532 417.533 396.844C416.736 397.156 415.826 397.312 414.803 397.312Z" fill="#BB2F1C"/>
<path d="M573.464 63.416C571.817 63.416 570.37 63.0347 569.122 62.272C567.874 61.492 566.903 60.3827 566.21 58.944C565.517 57.5053 565.17 55.7893 565.17 53.796C565.17 51.8027 565.517 50.0867 566.21 48.648C566.903 47.192 567.874 46.074 569.122 45.294C570.37 44.514 571.817 44.124 573.464 44.124C575.7 44.124 577.433 44.6873 578.664 45.814C579.895 46.9407 580.701 48.4747 581.082 50.416L578.716 50.572C578.456 49.2547 577.901 48.2147 577.052 47.452C576.203 46.6893 575.007 46.308 573.464 46.308C572.285 46.308 571.245 46.6113 570.344 47.218C569.46 47.8073 568.767 48.6653 568.264 49.792C567.761 50.9013 567.51 52.236 567.51 53.796C567.51 55.356 567.761 56.6907 568.264 57.8C568.767 58.9093 569.46 59.7587 570.344 60.348C571.245 60.9373 572.285 61.232 573.464 61.232C575.076 61.232 576.324 60.816 577.208 59.984C578.092 59.1347 578.647 57.9907 578.872 56.552L581.238 56.708C581.013 58.0427 580.571 59.2127 579.912 60.218C579.253 61.2233 578.378 62.012 577.286 62.584C576.211 63.1387 574.937 63.416 573.464 63.416ZM589.54 63.312C588.275 63.312 587.165 63.0173 586.212 62.428C585.259 61.8387 584.522 61.0067 584.002 59.932C583.482 58.84 583.222 57.566 583.222 56.11C583.222 54.6367 583.482 53.3627 584.002 52.288C584.522 51.2133 585.259 50.3813 586.212 49.792C587.165 49.2027 588.275 48.908 589.54 48.908C590.805 48.908 591.906 49.2027 592.842 49.792C593.795 50.3813 594.532 51.2133 595.052 52.288C595.572 53.3627 595.832 54.6367 595.832 56.11C595.832 57.566 595.572 58.84 595.052 59.932C594.532 61.0067 593.795 61.8387 592.842 62.428C591.906 63.0173 590.805 63.312 589.54 63.312ZM589.54 61.232C590.805 61.232 591.785 60.7813 592.478 59.88C593.189 58.9613 593.544 57.7047 593.544 56.11C593.544 54.5153 593.189 53.2673 592.478 52.366C591.785 51.4473 590.805 50.988 589.54 50.988C588.275 50.988 587.287 51.4473 586.576 52.366C585.865 53.2673 585.51 54.5153 585.51 56.11C585.51 57.7047 585.865 58.9613 586.576 59.88C587.287 60.7813 588.275 61.232 589.54 61.232ZM598.809 66.9V49.22H600.837L600.889 52.184L600.577 52.028C600.923 51.0053 601.495 50.234 602.293 49.714C603.107 49.1767 604.043 48.908 605.101 48.908C606.47 48.908 607.588 49.246 608.455 49.922C609.339 50.598 609.989 51.482 610.405 52.574C610.838 53.666 611.055 54.8447 611.055 56.11C611.055 57.3753 610.838 58.554 610.405 59.646C609.989 60.738 609.339 61.622 608.455 62.298C607.588 62.974 606.47 63.312 605.101 63.312C604.39 63.312 603.723 63.1907 603.099 62.948C602.492 62.7053 601.972 62.3673 601.539 61.934C601.123 61.5007 600.837 60.9893 600.681 60.4L600.993 60.036V66.9H598.809ZM604.893 61.232C606.089 61.232 607.033 60.7813 607.727 59.88C608.42 58.9787 608.767 57.722 608.767 56.11C608.767 54.498 608.42 53.2413 607.727 52.34C607.033 51.4387 606.089 50.988 604.893 50.988C604.095 50.988 603.402 51.1787 602.813 51.56C602.241 51.9413 601.79 52.5133 601.461 53.276C601.149 54.0387 600.993 54.9833 600.993 56.11C600.993 57.2367 601.149 58.1813 601.461 58.944C601.773 59.7067 602.223 60.2787 602.813 60.66C603.402 61.0413 604.095 61.232 604.893 61.232ZM614.209 66.9V64.976H615.795C616.281 64.976 616.636 64.898 616.861 64.742C617.104 64.6033 617.286 64.3693 617.407 64.04L617.901 62.74H617.147L612.103 49.22H614.495L618.603 60.712L622.529 49.22H624.921L619.331 64.742C619.071 65.4873 618.681 66.0333 618.161 66.38C617.641 66.7267 616.922 66.9 616.003 66.9H614.209ZM639.12 63C637.872 63 636.945 62.714 636.338 62.142C635.749 61.57 635.454 60.6773 635.454 59.464V45.996H637.638V59.412C637.638 60.036 637.777 60.4693 638.054 60.712C638.331 60.9547 638.756 61.076 639.328 61.076H641.304V63H639.12ZM633.426 51.144V49.22H641.304V51.144H633.426ZM644.385 63V49.22H646.309L646.413 52.704L646.205 52.626C646.378 51.4473 646.751 50.5893 647.323 50.052C647.912 49.4973 648.692 49.22 649.663 49.22H651.015V51.3H649.689C648.995 51.3 648.415 51.43 647.947 51.69C647.496 51.9327 647.149 52.3053 646.907 52.808C646.681 53.2933 646.569 53.9173 646.569 54.68V63H644.385ZM656.913 63.312C655.492 63.312 654.357 62.9827 653.507 62.324C652.675 61.6653 652.259 60.7467 652.259 59.568C652.259 58.3893 652.606 57.462 653.299 56.786C653.993 56.11 655.093 55.6333 656.601 55.356L661.489 54.446C661.489 53.2847 661.212 52.418 660.657 51.846C660.12 51.274 659.305 50.988 658.213 50.988C657.26 50.988 656.506 51.2047 655.951 51.638C655.397 52.054 655.015 52.6607 654.807 53.458L652.493 53.276C652.753 51.976 653.377 50.9273 654.365 50.13C655.371 49.3153 656.653 48.908 658.213 48.908C659.981 48.908 661.333 49.4107 662.269 50.416C663.205 51.404 663.673 52.7733 663.673 54.524V60.218C663.673 60.53 663.725 60.7553 663.829 60.894C663.951 61.0153 664.141 61.076 664.401 61.076H664.947V63C664.878 63.0173 664.765 63.026 664.609 63.026C664.453 63.0433 664.289 63.052 664.115 63.052C663.491 63.052 662.98 62.9567 662.581 62.766C662.2 62.558 661.923 62.246 661.749 61.83C661.576 61.3967 661.489 60.8333 661.489 60.14L661.749 60.192C661.628 60.7813 661.333 61.3187 660.865 61.804C660.397 62.272 659.817 62.6447 659.123 62.922C658.43 63.182 657.693 63.312 656.913 63.312ZM657.121 61.388C658.04 61.388 658.82 61.2147 659.461 60.868C660.12 60.504 660.623 60.0187 660.969 59.412C661.316 58.788 661.489 58.0947 661.489 57.332V56.344L657.017 57.176C656.081 57.3493 655.431 57.618 655.067 57.982C654.721 58.3287 654.547 58.788 654.547 59.36C654.547 60.0013 654.773 60.504 655.223 60.868C655.691 61.2147 656.324 61.388 657.121 61.388ZM672.251 63.312C671.055 63.312 670.015 63.0173 669.131 62.428C668.265 61.8387 667.597 61.0067 667.129 59.932C666.661 58.8573 666.427 57.5833 666.427 56.11C666.427 54.6367 666.661 53.3627 667.129 52.288C667.597 51.2133 668.265 50.3813 669.131 49.792C670.015 49.2027 671.055 48.908 672.251 48.908C673.17 48.908 674.011 49.1073 674.773 49.506C675.536 49.8873 676.108 50.4333 676.489 51.144V44.54H678.673V63H676.697L676.619 60.92C676.238 61.6653 675.657 62.2547 674.877 62.688C674.097 63.104 673.222 63.312 672.251 63.312ZM672.693 61.232C673.508 61.232 674.193 61.024 674.747 60.608C675.319 60.192 675.753 59.6027 676.047 58.84C676.342 58.06 676.489 57.15 676.489 56.11C676.489 55.0353 676.342 54.1167 676.047 53.354C675.753 52.5913 675.319 52.0107 674.747 51.612C674.193 51.196 673.508 50.988 672.693 50.988C671.48 50.988 670.509 51.4473 669.781 52.366C669.071 53.2673 668.715 54.5153 668.715 56.11C668.715 57.6873 669.071 58.9353 669.781 59.854C670.509 60.7727 671.48 61.232 672.693 61.232ZM682.318 63V49.22H684.502V63H682.318ZM682.266 47.062V44.514H684.554V47.062H682.266ZM688.92 63V49.22H690.922L691 52.73L690.74 52.496C690.913 51.6813 691.217 51.014 691.65 50.494C692.083 49.9567 692.603 49.558 693.21 49.298C693.834 49.038 694.501 48.908 695.212 48.908C696.269 48.908 697.136 49.142 697.812 49.61C698.505 50.078 699.017 50.7107 699.346 51.508C699.693 52.288 699.866 53.1633 699.866 54.134V63H697.682V54.758C697.682 53.9087 697.578 53.198 697.37 52.626C697.179 52.0367 696.867 51.5947 696.434 51.3C696.001 50.988 695.437 50.832 694.744 50.832C693.687 50.832 692.811 51.17 692.118 51.846C691.442 52.5047 691.104 53.4753 691.104 54.758V63H688.92ZM708.949 67.212C707.961 67.212 707.068 67.0473 706.271 66.718C705.473 66.3887 704.806 65.9207 704.269 65.314C703.731 64.7073 703.367 64.0053 703.177 63.208L705.465 63.052C705.673 63.6933 706.037 64.196 706.557 64.56C707.094 64.9413 707.891 65.132 708.949 65.132C710.197 65.132 711.15 64.8807 711.809 64.378C712.485 63.8753 712.823 63.1213 712.823 62.116V59.88C712.493 60.608 711.965 61.1887 711.237 61.622C710.509 62.0553 709.694 62.272 708.793 62.272C707.631 62.272 706.591 61.986 705.673 61.414C704.771 60.842 704.061 60.0533 703.541 59.048C703.038 58.0427 702.787 56.89 702.787 55.59C702.787 54.2727 703.038 53.12 703.541 52.132C704.043 51.1267 704.737 50.338 705.621 49.766C706.522 49.194 707.545 48.908 708.689 48.908C709.659 48.908 710.526 49.1333 711.289 49.584C712.069 50.0347 712.615 50.6413 712.927 51.404V49.22H715.007V62.064C715.007 63.1387 714.764 64.0573 714.279 64.82C713.793 65.6 713.1 66.1893 712.199 66.588C711.297 67.004 710.214 67.212 708.949 67.212ZM708.897 60.192C710.075 60.192 711.02 59.7847 711.731 58.97C712.441 58.138 712.805 57.0113 712.823 55.59C712.84 54.6367 712.684 53.822 712.355 53.146C712.043 52.4527 711.583 51.924 710.977 51.56C710.387 51.1787 709.694 50.988 708.897 50.988C707.683 50.988 706.739 51.404 706.063 52.236C705.404 53.0507 705.075 54.1687 705.075 55.59C705.075 57.0113 705.413 58.138 706.089 58.97C706.782 59.7847 707.718 60.192 708.897 60.192Z" fill="#BB7E1C"/>
<path d="M417.392 128V109.54H428.988V111.724H419.628V117.678H428.676V119.81H419.628V125.816H429.196V128H417.392ZM435.748 128L430.73 114.22H433.122L437.126 125.764L441.13 114.22H443.522L438.504 128H435.748ZM450.874 128.312C449.574 128.312 448.447 128.017 447.494 127.428C446.558 126.839 445.83 126.007 445.31 124.932C444.807 123.84 444.556 122.566 444.556 121.11C444.556 119.654 444.807 118.389 445.31 117.314C445.83 116.239 446.549 115.407 447.468 114.818C448.404 114.211 449.505 113.908 450.77 113.908C451.966 113.908 453.023 114.194 453.942 114.766C454.861 115.321 455.571 116.135 456.074 117.21C456.594 118.285 456.854 119.593 456.854 121.136V121.786H446.844C446.931 123.259 447.321 124.369 448.014 125.114C448.725 125.859 449.678 126.232 450.874 126.232C451.775 126.232 452.512 126.024 453.084 125.608C453.673 125.175 454.081 124.611 454.306 123.918L456.646 124.1C456.282 125.331 455.589 126.345 454.566 127.142C453.561 127.922 452.33 128.312 450.874 128.312ZM446.844 119.862H454.462C454.358 118.527 453.968 117.548 453.292 116.924C452.633 116.3 451.793 115.988 450.77 115.988C449.713 115.988 448.837 116.317 448.144 116.976C447.468 117.617 447.035 118.579 446.844 119.862ZM459.812 128V114.22H461.814L461.892 117.73L461.632 117.496C461.806 116.681 462.109 116.014 462.542 115.494C462.976 114.957 463.496 114.558 464.102 114.298C464.726 114.038 465.394 113.908 466.104 113.908C467.162 113.908 468.028 114.142 468.704 114.61C469.398 115.078 469.909 115.711 470.238 116.508C470.585 117.288 470.758 118.163 470.758 119.134V128H468.574V119.758C468.574 118.909 468.47 118.198 468.262 117.626C468.072 117.037 467.76 116.595 467.326 116.3C466.893 115.988 466.33 115.832 465.636 115.832C464.579 115.832 463.704 116.17 463.01 116.846C462.334 117.505 461.996 118.475 461.996 119.758V128H459.812ZM478.923 128C477.675 128 476.747 127.714 476.141 127.142C475.551 126.57 475.257 125.677 475.257 124.464V110.996H477.441V124.412C477.441 125.036 477.579 125.469 477.857 125.712C478.134 125.955 478.559 126.076 479.131 126.076H481.107V128H478.923ZM473.229 116.144V114.22H481.107V116.144H473.229ZM490.56 128V109.54H492.744V117.262L492.484 117.21C492.658 116.447 492.952 115.823 493.368 115.338C493.784 114.853 494.296 114.497 494.902 114.272C495.509 114.029 496.176 113.908 496.904 113.908C497.892 113.908 498.724 114.133 499.4 114.584C500.094 115.017 500.614 115.633 500.96 116.43C501.324 117.21 501.506 118.111 501.506 119.134V128H499.322V119.758C499.322 118.423 499.08 117.435 498.594 116.794C498.126 116.153 497.407 115.832 496.436 115.832C495.327 115.832 494.434 116.17 493.758 116.846C493.082 117.522 492.744 118.501 492.744 119.784V128H490.56ZM509.811 128.312C508.442 128.312 507.341 127.853 506.509 126.934C505.694 125.998 505.287 124.715 505.287 123.086V114.22H507.471V122.488C507.471 123.823 507.705 124.811 508.173 125.452C508.658 126.076 509.395 126.388 510.383 126.388C511.475 126.388 512.333 126.041 512.957 125.348C513.581 124.637 513.893 123.667 513.893 122.436V114.22H516.077V128H513.997V124.594L514.335 124.776C514.058 125.903 513.529 126.778 512.749 127.402C511.969 128.009 510.99 128.312 509.811 128.312ZM526.179 128.312C525.226 128.312 524.377 128.104 523.631 127.688C522.886 127.255 522.314 126.665 521.915 125.92L521.837 128H519.861V109.54H522.045V116.144C522.392 115.572 522.929 115.061 523.657 114.61C524.385 114.142 525.226 113.908 526.179 113.908C527.393 113.908 528.441 114.203 529.325 114.792C530.209 115.381 530.894 116.213 531.379 117.288C531.865 118.363 532.107 119.637 532.107 121.11C532.107 122.583 531.865 123.857 531.379 124.932C530.894 126.007 530.209 126.839 529.325 127.428C528.441 128.017 527.393 128.312 526.179 128.312ZM526.049 126.232C527.211 126.232 528.129 125.773 528.805 124.854C529.481 123.935 529.819 122.687 529.819 121.11C529.819 119.515 529.481 118.267 528.805 117.366C528.129 116.447 527.228 115.988 526.101 115.988C525.252 115.988 524.524 116.196 523.917 116.612C523.311 117.011 522.843 117.591 522.513 118.354C522.201 119.117 522.045 120.035 522.045 121.11C522.045 122.15 522.201 123.06 522.513 123.84C522.843 124.603 523.302 125.192 523.891 125.608C524.498 126.024 525.217 126.232 526.049 126.232Z" fill="#BB7E1C"/>
<path d="M343.392 325V306.54H349.736C351.92 306.54 353.558 306.939 354.65 307.736C355.742 308.533 356.288 309.79 356.288 311.506C356.288 312.303 356.115 313.005 355.768 313.612C355.421 314.219 354.927 314.695 354.286 315.042C353.645 315.371 352.882 315.536 351.998 315.536L351.972 315.38C353.549 315.38 354.789 315.805 355.69 316.654C356.609 317.486 357.068 318.578 357.068 319.93C357.068 321.611 356.522 322.877 355.43 323.726C354.338 324.575 352.787 325 350.776 325H343.392ZM345.628 322.816H350.776C352.041 322.816 353.012 322.556 353.688 322.036C354.381 321.516 354.728 320.771 354.728 319.8C354.728 318.829 354.381 318.075 353.688 317.538C353.012 316.983 352.041 316.706 350.776 316.706H345.628V322.816ZM345.628 314.522H349.736C351.088 314.522 352.128 314.271 352.856 313.768C353.584 313.248 353.948 312.529 353.948 311.61C353.948 310.639 353.593 309.92 352.882 309.452C352.189 308.967 351.14 308.724 349.736 308.724H345.628V314.522ZM364.267 325.312C362.845 325.312 361.71 324.983 360.861 324.324C360.029 323.665 359.613 322.747 359.613 321.568C359.613 320.389 359.959 319.462 360.653 318.786C361.346 318.11 362.447 317.633 363.955 317.356L368.843 316.446C368.843 315.285 368.565 314.418 368.011 313.846C367.473 313.274 366.659 312.988 365.567 312.988C364.613 312.988 363.859 313.205 363.305 313.638C362.75 314.054 362.369 314.661 362.161 315.458L359.847 315.276C360.107 313.976 360.731 312.927 361.719 312.13C362.724 311.315 364.007 310.908 365.567 310.908C367.335 310.908 368.687 311.411 369.623 312.416C370.559 313.404 371.027 314.773 371.027 316.524V322.218C371.027 322.53 371.079 322.755 371.183 322.894C371.304 323.015 371.495 323.076 371.755 323.076H372.301V325C372.231 325.017 372.119 325.026 371.963 325.026C371.807 325.043 371.642 325.052 371.469 325.052C370.845 325.052 370.333 324.957 369.935 324.766C369.553 324.558 369.276 324.246 369.103 323.83C368.929 323.397 368.843 322.833 368.843 322.14L369.103 322.192C368.981 322.781 368.687 323.319 368.219 323.804C367.751 324.272 367.17 324.645 366.477 324.922C365.783 325.182 365.047 325.312 364.267 325.312ZM364.475 323.388C365.393 323.388 366.173 323.215 366.815 322.868C367.473 322.504 367.976 322.019 368.323 321.412C368.669 320.788 368.843 320.095 368.843 319.332V318.344L364.371 319.176C363.435 319.349 362.785 319.618 362.421 319.982C362.074 320.329 361.901 320.788 361.901 321.36C361.901 322.001 362.126 322.504 362.577 322.868C363.045 323.215 363.677 323.388 364.475 323.388ZM379.605 325.312C378.409 325.312 377.369 325.017 376.485 324.428C375.618 323.839 374.951 323.007 374.483 321.932C374.015 320.857 373.781 319.583 373.781 318.11C373.781 316.637 374.015 315.363 374.483 314.288C374.951 313.213 375.618 312.381 376.485 311.792C377.369 311.203 378.409 310.908 379.605 310.908C380.523 310.908 381.364 311.107 382.127 311.506C382.889 311.887 383.461 312.433 383.843 313.144V306.54H386.027V325H384.051L383.973 322.92C383.591 323.665 383.011 324.255 382.231 324.688C381.451 325.104 380.575 325.312 379.605 325.312ZM380.047 323.232C380.861 323.232 381.546 323.024 382.101 322.608C382.673 322.192 383.106 321.603 383.401 320.84C383.695 320.06 383.843 319.15 383.843 318.11C383.843 317.035 383.695 316.117 383.401 315.354C383.106 314.591 382.673 314.011 382.101 313.612C381.546 313.196 380.861 312.988 380.047 312.988C378.833 312.988 377.863 313.447 377.135 314.366C376.424 315.267 376.069 316.515 376.069 318.11C376.069 319.687 376.424 320.935 377.135 321.854C377.863 322.773 378.833 323.232 380.047 323.232ZM395.152 329.212C394.164 329.212 393.271 329.047 392.474 328.718C391.676 328.389 391.009 327.921 390.472 327.314C389.934 326.707 389.57 326.005 389.38 325.208L391.668 325.052C391.876 325.693 392.24 326.196 392.76 326.56C393.297 326.941 394.094 327.132 395.152 327.132C396.4 327.132 397.353 326.881 398.012 326.378C398.688 325.875 399.026 325.121 399.026 324.116V321.88C398.696 322.608 398.168 323.189 397.44 323.622C396.712 324.055 395.897 324.272 394.996 324.272C393.834 324.272 392.794 323.986 391.876 323.414C390.974 322.842 390.264 322.053 389.744 321.048C389.241 320.043 388.99 318.89 388.99 317.59C388.99 316.273 389.241 315.12 389.744 314.132C390.246 313.127 390.94 312.338 391.824 311.766C392.725 311.194 393.748 310.908 394.892 310.908C395.862 310.908 396.729 311.133 397.492 311.584C398.272 312.035 398.818 312.641 399.13 313.404V311.22H401.21V324.064C401.21 325.139 400.967 326.057 400.482 326.82C399.996 327.6 399.303 328.189 398.402 328.588C397.5 329.004 396.417 329.212 395.152 329.212ZM395.1 322.192C396.278 322.192 397.223 321.785 397.934 320.97C398.644 320.138 399.008 319.011 399.026 317.59C399.043 316.637 398.887 315.822 398.558 315.146C398.246 314.453 397.786 313.924 397.18 313.56C396.59 313.179 395.897 312.988 395.1 312.988C393.886 312.988 392.942 313.404 392.266 314.236C391.607 315.051 391.278 316.169 391.278 317.59C391.278 319.011 391.616 320.138 392.292 320.97C392.985 321.785 393.921 322.192 395.1 322.192ZM410.491 325.312C409.191 325.312 408.065 325.017 407.111 324.428C406.175 323.839 405.447 323.007 404.927 321.932C404.425 320.84 404.173 319.566 404.173 318.11C404.173 316.654 404.425 315.389 404.927 314.314C405.447 313.239 406.167 312.407 407.085 311.818C408.021 311.211 409.122 310.908 410.387 310.908C411.583 310.908 412.641 311.194 413.559 311.766C414.478 312.321 415.189 313.135 415.691 314.21C416.211 315.285 416.471 316.593 416.471 318.136V318.786H406.461C406.548 320.259 406.938 321.369 407.631 322.114C408.342 322.859 409.295 323.232 410.491 323.232C411.393 323.232 412.129 323.024 412.701 322.608C413.291 322.175 413.698 321.611 413.923 320.918L416.263 321.1C415.899 322.331 415.206 323.345 414.183 324.142C413.178 324.922 411.947 325.312 410.491 325.312ZM406.461 316.862H414.079C413.975 315.527 413.585 314.548 412.909 313.924C412.251 313.3 411.41 312.988 410.387 312.988C409.33 312.988 408.455 313.317 407.761 313.976C407.085 314.617 406.652 315.579 406.461 316.862Z" fill="#BB2F1C"/>
<path d="M196.248 326.794L194.714 324.818C194.298 324.991 193.813 325.13 193.258 325.234C192.703 325.355 192.123 325.416 191.516 325.416C189.748 325.416 188.24 324.991 186.992 324.142C185.761 323.275 184.817 322.114 184.158 320.658C183.499 319.202 183.17 317.581 183.17 315.796C183.17 313.993 183.491 312.364 184.132 310.908C184.791 309.452 185.744 308.291 186.992 307.424C188.24 306.557 189.748 306.124 191.516 306.124C193.319 306.124 194.844 306.557 196.092 307.424C197.34 308.291 198.285 309.452 198.926 310.908C199.567 312.364 199.888 313.993 199.888 315.796C199.888 317.495 199.585 319.055 198.978 320.476C198.371 321.897 197.496 323.041 196.352 323.908L198.64 326.794H196.248ZM191.516 323.232C191.897 323.232 192.235 323.215 192.53 323.18C192.825 323.128 193.085 323.05 193.31 322.946L190.632 319.592H193.024L195 322.192C195.849 321.516 196.482 320.641 196.898 319.566C197.331 318.474 197.548 317.217 197.548 315.796C197.548 314.427 197.323 313.179 196.872 312.052C196.439 310.925 195.771 310.024 194.87 309.348C193.986 308.655 192.868 308.308 191.516 308.308C190.164 308.308 189.046 308.655 188.162 309.348C187.278 310.024 186.611 310.925 186.16 312.052C185.727 313.179 185.51 314.427 185.51 315.796C185.51 317.148 185.727 318.387 186.16 319.514C186.611 320.641 187.278 321.542 188.162 322.218C189.063 322.894 190.181 323.232 191.516 323.232ZM207.828 325.416C206.06 325.416 204.665 324.991 203.642 324.142C202.62 323.275 202.108 322.053 202.108 320.476C202.108 319.679 202.221 318.977 202.446 318.37C202.672 317.746 203.044 317.148 203.564 316.576C204.102 316.004 204.83 315.397 205.748 314.756C205.35 314.236 205.012 313.751 204.734 313.3C204.457 312.832 204.24 312.364 204.084 311.896C203.946 311.428 203.876 310.925 203.876 310.388C203.876 309.053 204.275 308.013 205.072 307.268C205.887 306.505 206.996 306.124 208.4 306.124C209.319 306.124 210.099 306.289 210.74 306.618C211.382 306.93 211.867 307.381 212.196 307.97C212.543 308.559 212.716 309.261 212.716 310.076C212.716 311.064 212.422 311.957 211.832 312.754C211.243 313.534 210.255 314.383 208.868 315.302L213.08 320.684C213.704 319.817 214.016 318.5 214.016 316.732L216.2 316.94C216.183 317.98 216.01 318.985 215.68 319.956C215.368 320.927 214.961 321.715 214.458 322.322L216.668 325H214.042L213.08 323.83C212.578 324.315 211.884 324.705 211 325C210.134 325.277 209.076 325.416 207.828 325.416ZM208.088 323.336C208.972 323.336 209.709 323.232 210.298 323.024C210.888 322.816 211.33 322.556 211.624 322.244L207.048 316.472C206.112 317.113 205.445 317.737 205.046 318.344C204.648 318.951 204.448 319.661 204.448 320.476C204.448 321.343 204.734 322.036 205.306 322.556C205.896 323.076 206.823 323.336 208.088 323.336ZM207.672 313.716C208.331 313.3 208.86 312.919 209.258 312.572C209.657 312.208 209.943 311.835 210.116 311.454C210.29 311.073 210.376 310.665 210.376 310.232C210.376 309.608 210.203 309.131 209.856 308.802C209.51 308.473 209.024 308.308 208.4 308.308C207.707 308.308 207.17 308.49 206.788 308.854C206.407 309.218 206.216 309.729 206.216 310.388C206.216 310.735 206.26 311.081 206.346 311.428C206.433 311.757 206.58 312.104 206.788 312.468C207.014 312.832 207.308 313.248 207.672 313.716ZM217.711 325L224.367 306.54H227.383L234.039 325H231.595L229.749 319.748H222.001L220.155 325H217.711ZM222.755 317.564H228.995L225.875 308.49L222.755 317.564Z" fill="#BB2F1C"/>
<rect x="487.5" y="197.5" width="317" height="237" stroke="#0F845A" stroke-opacity="0.7" stroke-dasharray="2 2"/>
<path d="M526.85 368L521.988 349.54H524.432L528.228 364.932L531.998 349.54H534.546L538.342 364.932L542.112 349.54H544.582L539.72 368H536.912L533.272 353.7L529.632 368H526.85ZM551.999 368.312C550.699 368.312 549.572 368.017 548.619 367.428C547.683 366.839 546.955 366.007 546.435 364.932C545.932 363.84 545.681 362.566 545.681 361.11C545.681 359.654 545.932 358.389 546.435 357.314C546.955 356.239 547.674 355.407 548.593 354.818C549.529 354.211 550.63 353.908 551.895 353.908C553.091 353.908 554.148 354.194 555.067 354.766C555.986 355.321 556.696 356.135 557.199 357.21C557.719 358.285 557.979 359.593 557.979 361.136V361.786H547.969C548.056 363.259 548.446 364.369 549.139 365.114C549.85 365.859 550.803 366.232 551.999 366.232C552.9 366.232 553.637 366.024 554.209 365.608C554.798 365.175 555.206 364.611 555.431 363.918L557.771 364.1C557.407 365.331 556.714 366.345 555.691 367.142C554.686 367.922 553.455 368.312 551.999 368.312ZM547.969 359.862H555.587C555.483 358.527 555.093 357.548 554.417 356.924C553.758 356.3 552.918 355.988 551.895 355.988C550.838 355.988 549.962 356.317 549.269 356.976C548.593 357.617 548.16 358.579 547.969 359.862ZM567.255 368.312C566.302 368.312 565.453 368.104 564.707 367.688C563.962 367.255 563.39 366.665 562.991 365.92L562.913 368H560.937V349.54H563.121V356.144C563.468 355.572 564.005 355.061 564.733 354.61C565.461 354.142 566.302 353.908 567.255 353.908C568.469 353.908 569.517 354.203 570.401 354.792C571.285 355.381 571.97 356.213 572.455 357.288C572.941 358.363 573.183 359.637 573.183 361.11C573.183 362.583 572.941 363.857 572.455 364.932C571.97 366.007 571.285 366.839 570.401 367.428C569.517 368.017 568.469 368.312 567.255 368.312ZM567.125 366.232C568.287 366.232 569.205 365.773 569.881 364.854C570.557 363.935 570.895 362.687 570.895 361.11C570.895 359.515 570.557 358.267 569.881 357.366C569.205 356.447 568.304 355.988 567.177 355.988C566.328 355.988 565.6 356.196 564.993 356.612C564.387 357.011 563.919 357.591 563.589 358.354C563.277 359.117 563.121 360.035 563.121 361.11C563.121 362.15 563.277 363.06 563.589 363.84C563.919 364.603 564.378 365.192 564.967 365.608C565.574 366.024 566.293 366.232 567.125 366.232ZM576.146 368V354.22H578.33V368H576.146ZM576.094 352.062V349.514H578.382V352.062H576.094ZM582.748 368V354.22H584.75L584.828 357.73L584.568 357.496C584.741 356.681 585.045 356.014 585.478 355.494C585.911 354.957 586.431 354.558 587.038 354.298C587.662 354.038 588.329 353.908 589.04 353.908C590.097 353.908 590.964 354.142 591.64 354.61C592.333 355.078 592.845 355.711 593.174 356.508C593.521 357.288 593.694 358.163 593.694 359.134V368H591.51V359.758C591.51 358.909 591.406 358.198 591.198 357.626C591.007 357.037 590.695 356.595 590.262 356.3C589.829 355.988 589.265 355.832 588.572 355.832C587.515 355.832 586.639 356.17 585.946 356.846C585.27 357.505 584.932 358.475 584.932 359.758V368H582.748ZM601.319 368.312C599.898 368.312 598.763 367.983 597.913 367.324C597.081 366.665 596.665 365.747 596.665 364.568C596.665 363.389 597.012 362.462 597.705 361.786C598.399 361.11 599.499 360.633 601.007 360.356L605.895 359.446C605.895 358.285 605.618 357.418 605.063 356.846C604.526 356.274 603.711 355.988 602.619 355.988C601.666 355.988 600.912 356.205 600.357 356.638C599.803 357.054 599.421 357.661 599.213 358.458L596.899 358.276C597.159 356.976 597.783 355.927 598.771 355.13C599.777 354.315 601.059 353.908 602.619 353.908C604.387 353.908 605.739 354.411 606.675 355.416C607.611 356.404 608.079 357.773 608.079 359.524V365.218C608.079 365.53 608.131 365.755 608.235 365.894C608.357 366.015 608.547 366.076 608.807 366.076H609.353V368C609.284 368.017 609.171 368.026 609.015 368.026C608.859 368.043 608.695 368.052 608.521 368.052C607.897 368.052 607.386 367.957 606.987 367.766C606.606 367.558 606.329 367.246 606.155 366.83C605.982 366.397 605.895 365.833 605.895 365.14L606.155 365.192C606.034 365.781 605.739 366.319 605.271 366.804C604.803 367.272 604.223 367.645 603.529 367.922C602.836 368.182 602.099 368.312 601.319 368.312ZM601.527 366.388C602.446 366.388 603.226 366.215 603.867 365.868C604.526 365.504 605.029 365.019 605.375 364.412C605.722 363.788 605.895 363.095 605.895 362.332V361.344L601.423 362.176C600.487 362.349 599.837 362.618 599.473 362.982C599.127 363.329 598.953 363.788 598.953 364.36C598.953 365.001 599.179 365.504 599.629 365.868C600.097 366.215 600.73 366.388 601.527 366.388ZM611.82 368V354.22H613.744L613.848 357.704L613.64 357.626C613.814 356.447 614.186 355.589 614.758 355.052C615.348 354.497 616.128 354.22 617.098 354.22H618.45V356.3H617.124C616.431 356.3 615.85 356.43 615.382 356.69C614.932 356.933 614.585 357.305 614.342 357.808C614.117 358.293 614.004 358.917 614.004 359.68V368H611.82Z" fill="#0F845A"/>
<path d="M553.392 206V187.54H556.564L565.69 203.764V187.54H567.926V206H564.598L555.628 190.088V206H553.392ZM577.53 206.312C576.23 206.312 575.104 206.017 574.15 205.428C573.214 204.839 572.486 204.007 571.966 202.932C571.464 201.84 571.212 200.566 571.212 199.11C571.212 197.654 571.464 196.389 571.966 195.314C572.486 194.239 573.206 193.407 574.124 192.818C575.06 192.211 576.161 191.908 577.426 191.908C578.622 191.908 579.68 192.194 580.598 192.766C581.517 193.321 582.228 194.135 582.73 195.21C583.25 196.285 583.51 197.593 583.51 199.136V199.786H573.5C573.587 201.259 573.977 202.369 574.67 203.114C575.381 203.859 576.334 204.232 577.53 204.232C578.432 204.232 579.168 204.024 579.74 203.608C580.33 203.175 580.737 202.611 580.962 201.918L583.302 202.1C582.938 203.331 582.245 204.345 581.222 205.142C580.217 205.922 578.986 206.312 577.53 206.312ZM573.5 197.862H581.118C581.014 196.527 580.624 195.548 579.948 194.924C579.29 194.3 578.449 193.988 577.426 193.988C576.369 193.988 575.494 194.317 574.8 194.976C574.124 195.617 573.691 196.579 573.5 197.862ZM588.818 206L584.554 192.22H586.946L590.17 203.712L593.446 192.22H595.786L599.062 203.712L602.312 192.22H604.704L600.44 206H597.684L594.616 195.522L591.548 206H588.818ZM611.698 206.312C610.467 206.312 609.418 206.113 608.552 205.714C607.702 205.315 607.035 204.769 606.55 204.076C606.082 203.365 605.813 202.559 605.744 201.658L608.032 201.502C608.17 202.334 608.526 203.001 609.098 203.504C609.67 203.989 610.536 204.232 611.698 204.232C612.634 204.232 613.379 204.085 613.934 203.79C614.506 203.478 614.792 202.984 614.792 202.308C614.792 201.944 614.705 201.641 614.532 201.398C614.358 201.155 614.02 200.947 613.518 200.774C613.015 200.583 612.27 200.401 611.282 200.228C609.964 199.985 608.924 199.691 608.162 199.344C607.416 198.98 606.879 198.538 606.55 198.018C606.238 197.481 606.082 196.848 606.082 196.12C606.082 194.889 606.532 193.884 607.434 193.104C608.335 192.307 609.618 191.908 611.282 191.908C612.408 191.908 613.353 192.116 614.116 192.532C614.896 192.931 615.502 193.468 615.936 194.144C616.386 194.803 616.681 195.531 616.82 196.328L614.532 196.484C614.428 195.999 614.237 195.574 613.96 195.21C613.682 194.829 613.318 194.534 612.868 194.326C612.417 194.101 611.88 193.988 611.256 193.988C610.268 193.988 609.54 194.179 609.072 194.56C608.604 194.941 608.37 195.427 608.37 196.016C608.37 196.467 608.474 196.839 608.682 197.134C608.907 197.411 609.262 197.645 609.748 197.836C610.233 198.009 610.883 198.165 611.698 198.304C613.102 198.547 614.194 198.841 614.974 199.188C615.754 199.535 616.3 199.959 616.612 200.462C616.924 200.965 617.08 201.58 617.08 202.308C617.08 203.157 616.837 203.885 616.352 204.492C615.884 205.081 615.242 205.532 614.428 205.844C613.63 206.156 612.72 206.312 611.698 206.312Z" fill="#57840F"/>
<path d="M615.202 287L608.52 268.54H610.964L616.684 284.556L622.378 268.54H624.822L618.14 287H615.202ZM631.763 287.312C630.497 287.312 629.388 287.017 628.435 286.428C627.481 285.839 626.745 285.007 626.225 283.932C625.705 282.84 625.445 281.566 625.445 280.11C625.445 278.637 625.705 277.363 626.225 276.288C626.745 275.213 627.481 274.381 628.435 273.792C629.388 273.203 630.497 272.908 631.763 272.908C633.028 272.908 634.129 273.203 635.065 273.792C636.018 274.381 636.755 275.213 637.275 276.288C637.795 277.363 638.055 278.637 638.055 280.11C638.055 281.566 637.795 282.84 637.275 283.932C636.755 285.007 636.018 285.839 635.065 286.428C634.129 287.017 633.028 287.312 631.763 287.312ZM631.763 285.232C633.028 285.232 634.007 284.781 634.701 283.88C635.411 282.961 635.767 281.705 635.767 280.11C635.767 278.515 635.411 277.267 634.701 276.366C634.007 275.447 633.028 274.988 631.763 274.988C630.497 274.988 629.509 275.447 628.799 276.366C628.088 277.267 627.733 278.515 627.733 280.11C627.733 281.705 628.088 282.961 628.799 283.88C629.509 284.781 630.497 285.232 631.763 285.232ZM645.542 287C644.294 287 643.367 286.714 642.76 286.142C642.171 285.57 641.876 284.677 641.876 283.464V269.996H644.06V283.412C644.06 284.036 644.199 284.469 644.476 284.712C644.753 284.955 645.178 285.076 645.75 285.076H647.726V287H645.542ZM639.848 275.144V273.22H647.726V275.144H639.848ZM650.527 287V273.22H652.711V287H650.527ZM650.475 271.062V268.514H652.763V271.062H650.475ZM657.129 287V273.22H659.131L659.209 276.73L658.949 276.496C659.122 275.681 659.425 275.014 659.859 274.494C660.292 273.957 660.812 273.558 661.419 273.298C662.043 273.038 662.71 272.908 663.421 272.908C664.478 272.908 665.345 273.142 666.021 273.61C666.714 274.078 667.225 274.711 667.555 275.508C667.901 276.288 668.075 277.163 668.075 278.134V287H665.891V278.758C665.891 277.909 665.787 277.198 665.579 276.626C665.388 276.037 665.076 275.595 664.643 275.3C664.209 274.988 663.646 274.832 662.953 274.832C661.895 274.832 661.02 275.17 660.327 275.846C659.651 276.505 659.313 277.475 659.313 278.758V287H657.129ZM677.158 291.212C676.17 291.212 675.277 291.047 674.48 290.718C673.682 290.389 673.015 289.921 672.478 289.314C671.94 288.707 671.576 288.005 671.386 287.208L673.674 287.052C673.882 287.693 674.246 288.196 674.766 288.56C675.303 288.941 676.1 289.132 677.158 289.132C678.406 289.132 679.359 288.881 680.018 288.378C680.694 287.875 681.032 287.121 681.032 286.116V283.88C680.702 284.608 680.174 285.189 679.446 285.622C678.718 286.055 677.903 286.272 677.002 286.272C675.84 286.272 674.8 285.986 673.882 285.414C672.98 284.842 672.27 284.053 671.75 283.048C671.247 282.043 670.996 280.89 670.996 279.59C670.996 278.273 671.247 277.12 671.75 276.132C672.252 275.127 672.946 274.338 673.83 273.766C674.731 273.194 675.754 272.908 676.898 272.908C677.868 272.908 678.735 273.133 679.498 273.584C680.278 274.035 680.824 274.641 681.136 275.404V273.22H683.216V286.064C683.216 287.139 682.973 288.057 682.488 288.82C682.002 289.6 681.309 290.189 680.408 290.588C679.506 291.004 678.423 291.212 677.158 291.212ZM677.106 284.192C678.284 284.192 679.229 283.785 679.94 282.97C680.65 282.138 681.014 281.011 681.032 279.59C681.049 278.637 680.893 277.822 680.564 277.146C680.252 276.453 679.792 275.924 679.186 275.56C678.596 275.179 677.903 274.988 677.106 274.988C675.892 274.988 674.948 275.404 674.272 276.236C673.613 277.051 673.284 278.169 673.284 279.59C673.284 281.011 673.622 282.138 674.298 282.97C674.991 283.785 675.927 284.192 677.106 284.192Z" fill="#0F845A"/>
<path d="M648.392 234V215.54H654.112C656.955 215.54 659.139 216.346 660.664 217.958C662.207 219.553 662.978 221.832 662.978 224.796C662.978 227.743 662.224 230.013 660.716 231.608C659.208 233.203 657.059 234 654.268 234H648.392ZM650.628 231.816H654.112C656.279 231.816 657.908 231.235 659 230.074C660.092 228.895 660.638 227.136 660.638 224.796C660.638 222.421 660.092 220.653 659 219.492C657.908 218.313 656.279 217.724 654.112 217.724H650.628V231.816ZM665.879 234V220.22H668.063V234H665.879ZM665.827 218.062V215.514H668.115V218.062H665.827ZM676.991 234.312C675.76 234.312 674.711 234.113 673.845 233.714C672.995 233.315 672.328 232.769 671.843 232.076C671.375 231.365 671.106 230.559 671.037 229.658L673.325 229.502C673.463 230.334 673.819 231.001 674.391 231.504C674.963 231.989 675.829 232.232 676.991 232.232C677.927 232.232 678.672 232.085 679.227 231.79C679.799 231.478 680.085 230.984 680.085 230.308C680.085 229.944 679.998 229.641 679.825 229.398C679.651 229.155 679.313 228.947 678.811 228.774C678.308 228.583 677.563 228.401 676.575 228.228C675.257 227.985 674.217 227.691 673.455 227.344C672.709 226.98 672.172 226.538 671.843 226.018C671.531 225.481 671.375 224.848 671.375 224.12C671.375 222.889 671.825 221.884 672.727 221.104C673.628 220.307 674.911 219.908 676.575 219.908C677.701 219.908 678.646 220.116 679.409 220.532C680.189 220.931 680.795 221.468 681.229 222.144C681.679 222.803 681.974 223.531 682.113 224.328L679.825 224.484C679.721 223.999 679.53 223.574 679.253 223.21C678.975 222.829 678.611 222.534 678.161 222.326C677.71 222.101 677.173 221.988 676.549 221.988C675.561 221.988 674.833 222.179 674.365 222.56C673.897 222.941 673.663 223.427 673.663 224.016C673.663 224.467 673.767 224.839 673.975 225.134C674.2 225.411 674.555 225.645 675.041 225.836C675.526 226.009 676.176 226.165 676.991 226.304C678.395 226.547 679.487 226.841 680.267 227.188C681.047 227.535 681.593 227.959 681.905 228.462C682.217 228.965 682.373 229.58 682.373 230.308C682.373 231.157 682.13 231.885 681.645 232.492C681.177 233.081 680.535 233.532 679.721 233.844C678.923 234.156 678.013 234.312 676.991 234.312ZM690.735 234.312C689.453 234.312 688.335 234.017 687.381 233.428C686.445 232.839 685.717 232.007 685.197 230.932C684.677 229.84 684.417 228.566 684.417 227.11C684.417 225.654 684.677 224.389 685.197 223.314C685.717 222.239 686.445 221.407 687.381 220.818C688.335 220.211 689.453 219.908 690.735 219.908C691.793 219.908 692.729 220.099 693.543 220.48C694.375 220.844 695.051 221.381 695.571 222.092C696.091 222.803 696.429 223.669 696.585 224.692L694.297 224.848C694.141 223.929 693.743 223.227 693.101 222.742C692.46 222.239 691.671 221.988 690.735 221.988C689.47 221.988 688.482 222.447 687.771 223.366C687.061 224.267 686.705 225.515 686.705 227.11C686.705 228.705 687.061 229.961 687.771 230.88C688.482 231.781 689.47 232.232 690.735 232.232C691.671 232.232 692.46 231.972 693.101 231.452C693.743 230.932 694.141 230.152 694.297 229.112L696.585 229.268C696.429 230.291 696.091 231.183 695.571 231.946C695.051 232.691 694.375 233.272 693.543 233.688C692.729 234.104 691.793 234.312 690.735 234.312ZM703.817 234.312C702.448 234.312 701.347 233.853 700.515 232.934C699.7 231.998 699.293 230.715 699.293 229.086V220.22H701.477V228.488C701.477 229.823 701.711 230.811 702.179 231.452C702.664 232.076 703.401 232.388 704.389 232.388C705.481 232.388 706.339 232.041 706.963 231.348C707.587 230.637 707.899 229.667 707.899 228.436V220.22H710.083V234H708.003V230.594L708.341 230.776C708.064 231.903 707.535 232.778 706.755 233.402C705.975 234.009 704.996 234.312 703.817 234.312ZM719.012 234.312C717.781 234.312 716.733 234.113 715.866 233.714C715.017 233.315 714.349 232.769 713.864 232.076C713.396 231.365 713.127 230.559 713.058 229.658L715.346 229.502C715.485 230.334 715.84 231.001 716.412 231.504C716.984 231.989 717.851 232.232 719.012 232.232C719.948 232.232 720.693 232.085 721.248 231.79C721.82 231.478 722.106 230.984 722.106 230.308C722.106 229.944 722.019 229.641 721.846 229.398C721.673 229.155 721.335 228.947 720.832 228.774C720.329 228.583 719.584 228.401 718.596 228.228C717.279 227.985 716.239 227.691 715.476 227.344C714.731 226.98 714.193 226.538 713.864 226.018C713.552 225.481 713.396 224.848 713.396 224.12C713.396 222.889 713.847 221.884 714.748 221.104C715.649 220.307 716.932 219.908 718.596 219.908C719.723 219.908 720.667 220.116 721.43 220.532C722.21 220.931 722.817 221.468 723.25 222.144C723.701 222.803 723.995 223.531 724.134 224.328L721.846 224.484C721.742 223.999 721.551 223.574 721.274 223.21C720.997 222.829 720.633 222.534 720.182 222.326C719.731 222.101 719.194 221.988 718.57 221.988C717.582 221.988 716.854 222.179 716.386 222.56C715.918 222.941 715.684 223.427 715.684 224.016C715.684 224.467 715.788 224.839 715.996 225.134C716.221 225.411 716.577 225.645 717.062 225.836C717.547 226.009 718.197 226.165 719.012 226.304C720.416 226.547 721.508 226.841 722.288 227.188C723.068 227.535 723.614 227.959 723.926 228.462C724.238 228.965 724.394 229.58 724.394 230.308C724.394 231.157 724.151 231.885 723.666 232.492C723.198 233.081 722.557 233.532 721.742 233.844C720.945 234.156 720.035 234.312 719.012 234.312ZM732.393 234.312C731.162 234.312 730.114 234.113 729.247 233.714C728.398 233.315 727.73 232.769 727.245 232.076C726.777 231.365 726.508 230.559 726.439 229.658L728.727 229.502C728.866 230.334 729.221 231.001 729.793 231.504C730.365 231.989 731.232 232.232 732.393 232.232C733.329 232.232 734.074 232.085 734.629 231.79C735.201 231.478 735.487 230.984 735.487 230.308C735.487 229.944 735.4 229.641 735.227 229.398C735.054 229.155 734.716 228.947 734.213 228.774C733.71 228.583 732.965 228.401 731.977 228.228C730.66 227.985 729.62 227.691 728.857 227.344C728.112 226.98 727.574 226.538 727.245 226.018C726.933 225.481 726.777 224.848 726.777 224.12C726.777 222.889 727.228 221.884 728.129 221.104C729.03 220.307 730.313 219.908 731.977 219.908C733.104 219.908 734.048 220.116 734.811 220.532C735.591 220.931 736.198 221.468 736.631 222.144C737.082 222.803 737.376 223.531 737.515 224.328L735.227 224.484C735.123 223.999 734.932 223.574 734.655 223.21C734.378 222.829 734.014 222.534 733.563 222.326C733.112 222.101 732.575 221.988 731.951 221.988C730.963 221.988 730.235 222.179 729.767 222.56C729.299 222.941 729.065 223.427 729.065 224.016C729.065 224.467 729.169 224.839 729.377 225.134C729.602 225.411 729.958 225.645 730.443 225.836C730.928 226.009 731.578 226.165 732.393 226.304C733.797 226.547 734.889 226.841 735.669 227.188C736.449 227.535 736.995 227.959 737.307 228.462C737.619 228.965 737.775 229.58 737.775 230.308C737.775 231.157 737.532 231.885 737.047 232.492C736.579 233.081 735.938 233.532 735.123 233.844C734.326 234.156 733.416 234.312 732.393 234.312ZM740.756 234V220.22H742.94V234H740.756ZM740.704 218.062V215.514H742.992V218.062H740.704ZM752.232 234.312C750.966 234.312 749.857 234.017 748.904 233.428C747.95 232.839 747.214 232.007 746.694 230.932C746.174 229.84 745.914 228.566 745.914 227.11C745.914 225.637 746.174 224.363 746.694 223.288C747.214 222.213 747.95 221.381 748.904 220.792C749.857 220.203 750.966 219.908 752.232 219.908C753.497 219.908 754.598 220.203 755.534 220.792C756.487 221.381 757.224 222.213 757.744 223.288C758.264 224.363 758.524 225.637 758.524 227.11C758.524 228.566 758.264 229.84 757.744 230.932C757.224 232.007 756.487 232.839 755.534 233.428C754.598 234.017 753.497 234.312 752.232 234.312ZM752.232 232.232C753.497 232.232 754.476 231.781 755.17 230.88C755.88 229.961 756.236 228.705 756.236 227.11C756.236 225.515 755.88 224.267 755.17 223.366C754.476 222.447 753.497 221.988 752.232 221.988C750.966 221.988 749.978 222.447 749.268 223.366C748.557 224.267 748.202 225.515 748.202 227.11C748.202 228.705 748.557 229.961 749.268 230.88C749.978 231.781 750.966 232.232 752.232 232.232ZM761.5 234V220.22H763.502L763.58 223.73L763.32 223.496C763.493 222.681 763.797 222.014 764.23 221.494C764.663 220.957 765.183 220.558 765.79 220.298C766.414 220.038 767.081 219.908 767.792 219.908C768.849 219.908 769.716 220.142 770.392 220.61C771.085 221.078 771.597 221.711 771.926 222.508C772.273 223.288 772.446 224.163 772.446 225.134V234H770.262V225.758C770.262 224.909 770.158 224.198 769.95 223.626C769.759 223.037 769.447 222.595 769.014 222.3C768.581 221.988 768.017 221.832 767.324 221.832C766.267 221.832 765.391 222.17 764.698 222.846C764.022 223.505 763.684 224.475 763.684 225.758V234H761.5Z" fill="#0F845A"/>
</svg>
