<svg xmlns="http://www.w3.org/2000/svg" width="32" height="32" viewBox="0 0 32 32" shape-rendering="crispEdges">
  <rect width="32" height="32" fill="#C2CFAD"/>

  <g fill="#D0DBBD">
    <rect x="3" y="1" width="1" height="1"/>
    <rect x="15" y="1" width="1" height="1"/>
    <rect x="28" y="2" width="1" height="1"/>
    <rect x="9" y="5" width="1" height="1"/>
    <rect x="22" y="3" width="1" height="1"/>
    <rect x="12" y="9" width="1" height="1"/>
    <rect x="25" y="8" width="1" height="1"/>
    <rect x="4" y="14" width="1" height="1"/>
    <rect x="19" y="12" width="1" height="1"/>
    <rect x="7" y="18" width="1" height="1"/>
    <rect x="23" y="17" width="1" height="1"/>
    <rect x="14" y="21" width="1" height="1"/>
    <rect x="28" y="23" width="1" height="1"/>
    <rect x="10" y="26" width="1" height="1"/>
    <rect x="19" y="29" width="1" height="1"/>
  </g>

  <g fill="#ADBD97">
    <rect x="6" y="0" width="1" height="1"/>
    <rect x="25" y="0" width="1" height="1"/>
    <rect x="1" y="6" width="1" height="1"/>
    <rect x="17" y="4" width="1" height="1"/>
    <rect x="30" y="3" width="1" height="1"/>
    <rect x="9" y="11" width="1" height="1"/>
    <rect x="24" y="10" width="1" height="1"/>
    <rect x="16" y="15" width="1" height="1"/>
    <rect x="30" y="12" width="1" height="1"/>
    <rect x="6" y="19" width="1" height="1"/>
    <rect x="22" y="19" width="1" height="1"/>
    <rect x="3" y="23" width="1" height="1"/>
    <rect x="28" y="24" width="1" height="1"/>
    <rect x="15" y="27" width="1" height="1"/>
    <rect x="10" y="30" width="1" height="1"/>
  </g>

  <g fill="#9CAD88">
    <rect x="11" y="1" width="1" height="2"/>
    <rect x="20" y="2" width="1" height="2"/>
    <rect x="29" y="5" width="1" height="2"/>
    <rect x="14" y="11" width="1" height="2"/>
    <rect x="25" y="13" width="1" height="2"/>
    <rect x="5" y="18" width="1" height="2"/>
    <rect x="21" y="23" width="1" height="2"/>
    <rect x="8" y="27" width="1" height="2"/>
  </g>
</svg>
